<?xml version="1.0" standalone="no"?>
<!DOCTYPE svg PUBLIC "-//W3C//DTD SVG 20010904//EN"
 "http://www.w3.org/TR/2001/REC-SVG-20010904/DTD/svg10.dtd">
<svg version="1.0" xmlns="http://www.w3.org/2000/svg"
 width="256.000000pt" height="225.000000pt" viewBox="0 0 256.000000 225.000000"
 preserveAspectRatio="xMidYMid meet">

<g transform="translate(0.000000,225.000000) scale(0.100000,-0.100000)"
fill="#000000" stroke="none">
<path d="M1217 2188 c-12 -13 -281 -471 -597 -1018 -627 -1086 -604 -1041
-547 -1098 l27 -27 1180 0 1180 0 27 27 c58 58 82 10 -546 1098 -315 547 -585
1005 -598 1018 -17 15 -36 22 -64 22 -28 0 -46 -7 -62 -22z m514 -1131 l445
-772 -448 -3 c-246 -1 -650 -1 -896 0 l-448 3 446 772 c245 425 447 773 450
773 3 0 205 -348 451 -773z"/>
<path d="M1234 1486 c-56 -25 -74 -59 -74 -145 0 -109 30 -509 41 -554 13 -48
41 -77 77 -77 43 0 69 25 81 77 13 59 41 429 41 545 0 97 -16 129 -76 154 -41
17 -50 17 -90 0z"/>
<path d="M1234 610 c-11 -4 -33 -22 -47 -40 -49 -58 -32 -152 34 -186 83 -42
180 14 181 106 1 89 -87 153 -168 120z"/>
</g>
</svg>
